<mxfile host="app.diagrams.net" modified="2024-04-29T10:35:40.219Z" agent="Mozilla/5.0 (Windows NT 10.0; Win64; x64; rv:125.0) Gecko/20100101 Firefox/125.0" etag="6PEax01nssDi1pK4cL1E" version="24.3.1" type="github">
  <diagram name="Page-1" id="e56a1550-8fbb-45ad-956c-1786394a9013">
    <mxGraphModel dx="880" dy="422" grid="1" gridSize="10" guides="1" tooltips="1" connect="1" arrows="1" fold="1" page="1" pageScale="1" pageWidth="1100" pageHeight="850" background="none" math="0" shadow="0">
      <root>
        <mxCell id="0" />
        <mxCell id="1" parent="0" />
        <mxCell id="2e49270ec7c68f3f-55" value="" style="edgeStyle=orthogonalEdgeStyle;html=1;endArrow=ERoneToMany;startArrow=ERmandOne;labelBackgroundColor=none;fontFamily=Verdana;fontSize=14;entryX=0;entryY=0.967;entryDx=0;entryDy=0;entryPerimeter=0;exitX=0;exitY=0.5;exitDx=0;exitDy=0;" parent="1" source="2pUBPjOlZF1aQdrN3Zt4-69" target="2pUBPjOlZF1aQdrN3Zt4-32" edge="1">
          <mxGeometry width="100" height="100" relative="1" as="geometry">
            <mxPoint x="290" y="590" as="sourcePoint" />
            <mxPoint x="290" y="239" as="targetPoint" />
            <Array as="points">
              <mxPoint x="310" y="590" />
              <mxPoint x="250" y="590" />
              <mxPoint x="250" y="239" />
              <mxPoint x="310" y="239" />
            </Array>
          </mxGeometry>
        </mxCell>
        <mxCell id="2e49270ec7c68f3f-91" value="" style="edgeStyle=orthogonalEdgeStyle;html=1;endArrow=ERzeroToOne;endFill=1;labelBackgroundColor=none;fontFamily=Verdana;fontSize=14;entryX=0;entryY=0.007;exitX=1;exitY=0;entryDx=0;entryDy=0;entryPerimeter=0;exitDx=0;exitDy=0;exitPerimeter=0;" parent="1" source="2pUBPjOlZF1aQdrN3Zt4-107" target="2pUBPjOlZF1aQdrN3Zt4-31" edge="1">
          <mxGeometry width="100" height="100" relative="1" as="geometry">
            <mxPoint x="190" y="399" as="sourcePoint" />
            <mxPoint x="290" y="181" as="targetPoint" />
            <Array as="points">
              <mxPoint x="180" y="399" />
              <mxPoint x="230" y="399" />
              <mxPoint x="230" y="181" />
              <mxPoint x="310" y="181" />
            </Array>
          </mxGeometry>
        </mxCell>
        <mxCell id="2e49270ec7c68f3f-92" value="" style="edgeStyle=orthogonalEdgeStyle;html=1;endArrow=ERzeroToOne;endFill=1;labelBackgroundColor=none;fontFamily=Verdana;fontSize=14;exitX=0.983;exitY=0.033;entryX=0;entryY=0.5;entryDx=0;entryDy=0;exitDx=0;exitDy=0;exitPerimeter=0;" parent="1" source="2pUBPjOlZF1aQdrN3Zt4-116" target="2pUBPjOlZF1aQdrN3Zt4-103" edge="1">
          <mxGeometry width="100" height="100" relative="1" as="geometry">
            <mxPoint x="190" y="489" as="sourcePoint" />
            <mxPoint x="290" y="680" as="targetPoint" />
            <Array as="points">
              <mxPoint x="190" y="491" />
              <mxPoint x="190" y="479" />
              <mxPoint x="220" y="479" />
              <mxPoint x="220" y="679" />
              <mxPoint x="310" y="679" />
            </Array>
          </mxGeometry>
        </mxCell>
        <mxCell id="2pUBPjOlZF1aQdrN3Zt4-31" value="&lt;pre&gt;&lt;code class=&quot;!whitespace-pre hljs language-makefile&quot;&gt;Cast_Member&lt;/code&gt;&lt;/pre&gt;" style="shape=table;startSize=30;container=1;collapsible=1;childLayout=tableLayout;fixedRows=1;rowLines=0;fontStyle=1;align=center;resizeLast=1;html=1;" vertex="1" parent="1">
          <mxGeometry x="310" y="110" width="180" height="220" as="geometry" />
        </mxCell>
        <mxCell id="2pUBPjOlZF1aQdrN3Zt4-32" value="" style="shape=tableRow;horizontal=0;startSize=0;swimlaneHead=0;swimlaneBody=0;fillColor=none;collapsible=0;dropTarget=0;points=[[0,0.5],[1,0.5]];portConstraint=eastwest;top=0;left=0;right=0;bottom=1;" vertex="1" parent="2pUBPjOlZF1aQdrN3Zt4-31">
          <mxGeometry y="30" width="180" height="30" as="geometry" />
        </mxCell>
        <mxCell id="2pUBPjOlZF1aQdrN3Zt4-33" value="PK" style="shape=partialRectangle;connectable=0;fillColor=none;top=0;left=0;bottom=0;right=0;fontStyle=1;overflow=hidden;whiteSpace=wrap;html=1;" vertex="1" parent="2pUBPjOlZF1aQdrN3Zt4-32">
          <mxGeometry width="30" height="30" as="geometry">
            <mxRectangle width="30" height="30" as="alternateBounds" />
          </mxGeometry>
        </mxCell>
        <mxCell id="2pUBPjOlZF1aQdrN3Zt4-34" value="&lt;pre&gt;&lt;code class=&quot;!whitespace-pre hljs language-makefile&quot;&gt;&lt;span class=&quot;hljs-section&quot;&gt;actor_id&lt;/span&gt;&lt;/code&gt;&lt;/pre&gt;" style="shape=partialRectangle;connectable=0;fillColor=none;top=0;left=0;bottom=0;right=0;align=left;spacingLeft=6;fontStyle=5;overflow=hidden;whiteSpace=wrap;html=1;" vertex="1" parent="2pUBPjOlZF1aQdrN3Zt4-32">
          <mxGeometry x="30" width="150" height="30" as="geometry">
            <mxRectangle width="150" height="30" as="alternateBounds" />
          </mxGeometry>
        </mxCell>
        <mxCell id="2pUBPjOlZF1aQdrN3Zt4-35" value="" style="shape=tableRow;horizontal=0;startSize=0;swimlaneHead=0;swimlaneBody=0;fillColor=none;collapsible=0;dropTarget=0;points=[[0,0.5],[1,0.5]];portConstraint=eastwest;top=0;left=0;right=0;bottom=0;" vertex="1" parent="2pUBPjOlZF1aQdrN3Zt4-31">
          <mxGeometry y="60" width="180" height="30" as="geometry" />
        </mxCell>
        <mxCell id="2pUBPjOlZF1aQdrN3Zt4-36" value="" style="shape=partialRectangle;connectable=0;fillColor=none;top=0;left=0;bottom=0;right=0;editable=1;overflow=hidden;whiteSpace=wrap;html=1;" vertex="1" parent="2pUBPjOlZF1aQdrN3Zt4-35">
          <mxGeometry width="30" height="30" as="geometry">
            <mxRectangle width="30" height="30" as="alternateBounds" />
          </mxGeometry>
        </mxCell>
        <mxCell id="2pUBPjOlZF1aQdrN3Zt4-37" value="&lt;pre&gt;&lt;code class=&quot;!whitespace-pre hljs language-makefile&quot;&gt;&lt;span class=&quot;hljs-section&quot;&gt;1: Leonardo DiCaprio&lt;/span&gt;&lt;/code&gt;&lt;/pre&gt;" style="shape=partialRectangle;connectable=0;fillColor=none;top=0;left=0;bottom=0;right=0;align=left;spacingLeft=6;overflow=hidden;whiteSpace=wrap;html=1;" vertex="1" parent="2pUBPjOlZF1aQdrN3Zt4-35">
          <mxGeometry x="30" width="150" height="30" as="geometry">
            <mxRectangle width="150" height="30" as="alternateBounds" />
          </mxGeometry>
        </mxCell>
        <mxCell id="2pUBPjOlZF1aQdrN3Zt4-38" value="" style="shape=tableRow;horizontal=0;startSize=0;swimlaneHead=0;swimlaneBody=0;fillColor=none;collapsible=0;dropTarget=0;points=[[0,0.5],[1,0.5]];portConstraint=eastwest;top=0;left=0;right=0;bottom=0;" vertex="1" parent="2pUBPjOlZF1aQdrN3Zt4-31">
          <mxGeometry y="90" width="180" height="30" as="geometry" />
        </mxCell>
        <mxCell id="2pUBPjOlZF1aQdrN3Zt4-39" value="" style="shape=partialRectangle;connectable=0;fillColor=none;top=0;left=0;bottom=0;right=0;editable=1;overflow=hidden;whiteSpace=wrap;html=1;" vertex="1" parent="2pUBPjOlZF1aQdrN3Zt4-38">
          <mxGeometry width="30" height="30" as="geometry">
            <mxRectangle width="30" height="30" as="alternateBounds" />
          </mxGeometry>
        </mxCell>
        <mxCell id="2pUBPjOlZF1aQdrN3Zt4-40" value="&lt;pre&gt;&lt;code class=&quot;!whitespace-pre hljs language-makefile&quot;&gt;&lt;span class=&quot;hljs-section&quot;&gt;2: Kate Winslet&lt;/span&gt;&lt;/code&gt;&lt;/pre&gt;" style="shape=partialRectangle;connectable=0;fillColor=none;top=0;left=0;bottom=0;right=0;align=left;spacingLeft=6;overflow=hidden;whiteSpace=wrap;html=1;" vertex="1" parent="2pUBPjOlZF1aQdrN3Zt4-38">
          <mxGeometry x="30" width="150" height="30" as="geometry">
            <mxRectangle width="150" height="30" as="alternateBounds" />
          </mxGeometry>
        </mxCell>
        <mxCell id="2pUBPjOlZF1aQdrN3Zt4-41" value="" style="shape=tableRow;horizontal=0;startSize=0;swimlaneHead=0;swimlaneBody=0;fillColor=none;collapsible=0;dropTarget=0;points=[[0,0.5],[1,0.5]];portConstraint=eastwest;top=0;left=0;right=0;bottom=0;" vertex="1" parent="2pUBPjOlZF1aQdrN3Zt4-31">
          <mxGeometry y="120" width="180" height="30" as="geometry" />
        </mxCell>
        <mxCell id="2pUBPjOlZF1aQdrN3Zt4-42" value="" style="shape=partialRectangle;connectable=0;fillColor=none;top=0;left=0;bottom=0;right=0;editable=1;overflow=hidden;whiteSpace=wrap;html=1;" vertex="1" parent="2pUBPjOlZF1aQdrN3Zt4-41">
          <mxGeometry width="30" height="30" as="geometry">
            <mxRectangle width="30" height="30" as="alternateBounds" />
          </mxGeometry>
        </mxCell>
        <mxCell id="2pUBPjOlZF1aQdrN3Zt4-43" value="&lt;pre&gt;&lt;code class=&quot;!whitespace-pre hljs language-makefile&quot;&gt;&lt;span class=&quot;hljs-section&quot;&gt;3: Christian Bale&lt;/span&gt;&lt;/code&gt;&lt;/pre&gt;" style="shape=partialRectangle;connectable=0;fillColor=none;top=0;left=0;bottom=0;right=0;align=left;spacingLeft=6;overflow=hidden;whiteSpace=wrap;html=1;" vertex="1" parent="2pUBPjOlZF1aQdrN3Zt4-41">
          <mxGeometry x="30" width="150" height="30" as="geometry">
            <mxRectangle width="150" height="30" as="alternateBounds" />
          </mxGeometry>
        </mxCell>
        <mxCell id="2pUBPjOlZF1aQdrN3Zt4-63" value="" style="shape=tableRow;horizontal=0;startSize=0;swimlaneHead=0;swimlaneBody=0;fillColor=none;collapsible=0;dropTarget=0;points=[[0,0.5],[1,0.5]];portConstraint=eastwest;top=0;left=0;right=0;bottom=0;" vertex="1" parent="2pUBPjOlZF1aQdrN3Zt4-31">
          <mxGeometry y="150" width="180" height="30" as="geometry" />
        </mxCell>
        <mxCell id="2pUBPjOlZF1aQdrN3Zt4-64" value="" style="shape=partialRectangle;connectable=0;fillColor=none;top=0;left=0;bottom=0;right=0;editable=1;overflow=hidden;whiteSpace=wrap;html=1;" vertex="1" parent="2pUBPjOlZF1aQdrN3Zt4-63">
          <mxGeometry width="30" height="30" as="geometry">
            <mxRectangle width="30" height="30" as="alternateBounds" />
          </mxGeometry>
        </mxCell>
        <mxCell id="2pUBPjOlZF1aQdrN3Zt4-65" value="&lt;pre&gt;&lt;code class=&quot;!whitespace-pre hljs language-makefile&quot;&gt;&lt;span class=&quot;hljs-section&quot;&gt;4: Heath Ledger&lt;/span&gt;&lt;/code&gt;&lt;/pre&gt;" style="shape=partialRectangle;connectable=0;fillColor=none;top=0;left=0;bottom=0;right=0;align=left;spacingLeft=6;overflow=hidden;whiteSpace=wrap;html=1;" vertex="1" parent="2pUBPjOlZF1aQdrN3Zt4-63">
          <mxGeometry x="30" width="150" height="30" as="geometry">
            <mxRectangle width="150" height="30" as="alternateBounds" />
          </mxGeometry>
        </mxCell>
        <mxCell id="2pUBPjOlZF1aQdrN3Zt4-66" value="" style="shape=tableRow;horizontal=0;startSize=0;swimlaneHead=0;swimlaneBody=0;fillColor=none;collapsible=0;dropTarget=0;points=[[0,0.5],[1,0.5]];portConstraint=eastwest;top=0;left=0;right=0;bottom=0;" vertex="1" parent="2pUBPjOlZF1aQdrN3Zt4-31">
          <mxGeometry y="180" width="180" height="40" as="geometry" />
        </mxCell>
        <mxCell id="2pUBPjOlZF1aQdrN3Zt4-67" value="" style="shape=partialRectangle;connectable=0;fillColor=none;top=0;left=0;bottom=0;right=0;editable=1;overflow=hidden;whiteSpace=wrap;html=1;" vertex="1" parent="2pUBPjOlZF1aQdrN3Zt4-66">
          <mxGeometry width="30" height="40" as="geometry">
            <mxRectangle width="30" height="40" as="alternateBounds" />
          </mxGeometry>
        </mxCell>
        <mxCell id="2pUBPjOlZF1aQdrN3Zt4-68" value="&lt;pre&gt;&lt;code class=&quot;!whitespace-pre hljs language-makefile&quot;&gt;&lt;span class=&quot;hljs-section&quot;&gt;5: Tom Hardy&lt;/span&gt;&lt;/code&gt;&lt;/pre&gt;" style="shape=partialRectangle;connectable=0;fillColor=none;top=0;left=0;bottom=0;right=0;align=left;spacingLeft=6;overflow=hidden;whiteSpace=wrap;html=1;" vertex="1" parent="2pUBPjOlZF1aQdrN3Zt4-66">
          <mxGeometry x="30" width="150" height="40" as="geometry">
            <mxRectangle width="150" height="40" as="alternateBounds" />
          </mxGeometry>
        </mxCell>
        <mxCell id="2pUBPjOlZF1aQdrN3Zt4-44" value="&lt;pre&gt;&lt;code class=&quot;!whitespace-pre hljs language-makefile&quot;&gt;Movie_Cast&lt;/code&gt;&lt;/pre&gt;" style="shape=table;startSize=22;container=1;collapsible=1;childLayout=tableLayout;fixedRows=1;rowLines=0;fontStyle=1;align=center;resizeLast=1;html=1;" vertex="1" parent="1">
          <mxGeometry x="310" y="358" width="360" height="330" as="geometry" />
        </mxCell>
        <mxCell id="2pUBPjOlZF1aQdrN3Zt4-45" value="" style="shape=tableRow;horizontal=0;startSize=0;swimlaneHead=0;swimlaneBody=0;fillColor=none;collapsible=0;dropTarget=0;points=[[0,0.5],[1,0.5]];portConstraint=eastwest;top=0;left=0;right=0;bottom=1;" vertex="1" parent="2pUBPjOlZF1aQdrN3Zt4-44">
          <mxGeometry y="22" width="360" height="30" as="geometry" />
        </mxCell>
        <mxCell id="2pUBPjOlZF1aQdrN3Zt4-46" value="PK" style="shape=partialRectangle;connectable=0;fillColor=none;top=0;left=0;bottom=0;right=0;fontStyle=1;overflow=hidden;whiteSpace=wrap;html=1;" vertex="1" parent="2pUBPjOlZF1aQdrN3Zt4-45">
          <mxGeometry width="30" height="30" as="geometry">
            <mxRectangle width="30" height="30" as="alternateBounds" />
          </mxGeometry>
        </mxCell>
        <mxCell id="2pUBPjOlZF1aQdrN3Zt4-47" value="&lt;pre&gt;&lt;code class=&quot;!whitespace-pre hljs language-makefile&quot;&gt;&lt;span class=&quot;hljs-section&quot;&gt;[Combination of movie_id and actor_id]&lt;/span&gt;&lt;/code&gt;&lt;/pre&gt;" style="shape=partialRectangle;connectable=0;fillColor=none;top=0;left=0;bottom=0;right=0;align=left;spacingLeft=6;fontStyle=5;overflow=hidden;whiteSpace=wrap;html=1;" vertex="1" parent="2pUBPjOlZF1aQdrN3Zt4-45">
          <mxGeometry x="30" width="330" height="30" as="geometry">
            <mxRectangle width="330" height="30" as="alternateBounds" />
          </mxGeometry>
        </mxCell>
        <mxCell id="2pUBPjOlZF1aQdrN3Zt4-48" value="" style="shape=tableRow;horizontal=0;startSize=0;swimlaneHead=0;swimlaneBody=0;fillColor=none;collapsible=0;dropTarget=0;points=[[0,0.5],[1,0.5]];portConstraint=eastwest;top=0;left=0;right=0;bottom=0;" vertex="1" parent="2pUBPjOlZF1aQdrN3Zt4-44">
          <mxGeometry y="52" width="360" height="30" as="geometry" />
        </mxCell>
        <mxCell id="2pUBPjOlZF1aQdrN3Zt4-49" value="" style="shape=partialRectangle;connectable=0;fillColor=none;top=0;left=0;bottom=0;right=0;editable=1;overflow=hidden;whiteSpace=wrap;html=1;" vertex="1" parent="2pUBPjOlZF1aQdrN3Zt4-48">
          <mxGeometry width="30" height="30" as="geometry">
            <mxRectangle width="30" height="30" as="alternateBounds" />
          </mxGeometry>
        </mxCell>
        <mxCell id="2pUBPjOlZF1aQdrN3Zt4-50" value="&lt;pre&gt;&lt;code class=&quot;!whitespace-pre hljs language-makefile&quot;&gt;&lt;span class=&quot;hljs-section&quot;&gt;(Titanic, Leonardo DiCaprio)&lt;/span&gt;&lt;/code&gt;&lt;/pre&gt;" style="shape=partialRectangle;connectable=0;fillColor=none;top=0;left=0;bottom=0;right=0;align=left;spacingLeft=6;overflow=hidden;whiteSpace=wrap;html=1;" vertex="1" parent="2pUBPjOlZF1aQdrN3Zt4-48">
          <mxGeometry x="30" width="330" height="30" as="geometry">
            <mxRectangle width="330" height="30" as="alternateBounds" />
          </mxGeometry>
        </mxCell>
        <mxCell id="2pUBPjOlZF1aQdrN3Zt4-51" value="" style="shape=tableRow;horizontal=0;startSize=0;swimlaneHead=0;swimlaneBody=0;fillColor=none;collapsible=0;dropTarget=0;points=[[0,0.5],[1,0.5]];portConstraint=eastwest;top=0;left=0;right=0;bottom=0;" vertex="1" parent="2pUBPjOlZF1aQdrN3Zt4-44">
          <mxGeometry y="82" width="360" height="30" as="geometry" />
        </mxCell>
        <mxCell id="2pUBPjOlZF1aQdrN3Zt4-52" value="" style="shape=partialRectangle;connectable=0;fillColor=none;top=0;left=0;bottom=0;right=0;editable=1;overflow=hidden;whiteSpace=wrap;html=1;" vertex="1" parent="2pUBPjOlZF1aQdrN3Zt4-51">
          <mxGeometry width="30" height="30" as="geometry">
            <mxRectangle width="30" height="30" as="alternateBounds" />
          </mxGeometry>
        </mxCell>
        <mxCell id="2pUBPjOlZF1aQdrN3Zt4-53" value="&lt;pre&gt;&lt;code class=&quot;!whitespace-pre hljs language-makefile&quot;&gt;&lt;span class=&quot;hljs-section&quot;&gt;1,1: (Titanic, Leonardo DiCaprio)&lt;/span&gt;&lt;/code&gt;&lt;/pre&gt;" style="shape=partialRectangle;connectable=0;fillColor=none;top=0;left=0;bottom=0;right=0;align=left;spacingLeft=6;overflow=hidden;whiteSpace=wrap;html=1;" vertex="1" parent="2pUBPjOlZF1aQdrN3Zt4-51">
          <mxGeometry x="30" width="330" height="30" as="geometry">
            <mxRectangle width="330" height="30" as="alternateBounds" />
          </mxGeometry>
        </mxCell>
        <mxCell id="2pUBPjOlZF1aQdrN3Zt4-54" value="" style="shape=tableRow;horizontal=0;startSize=0;swimlaneHead=0;swimlaneBody=0;fillColor=none;collapsible=0;dropTarget=0;points=[[0,0.5],[1,0.5]];portConstraint=eastwest;top=0;left=0;right=0;bottom=0;" vertex="1" parent="2pUBPjOlZF1aQdrN3Zt4-44">
          <mxGeometry y="112" width="360" height="30" as="geometry" />
        </mxCell>
        <mxCell id="2pUBPjOlZF1aQdrN3Zt4-55" value="" style="shape=partialRectangle;connectable=0;fillColor=none;top=0;left=0;bottom=0;right=0;editable=1;overflow=hidden;whiteSpace=wrap;html=1;" vertex="1" parent="2pUBPjOlZF1aQdrN3Zt4-54">
          <mxGeometry width="30" height="30" as="geometry">
            <mxRectangle width="30" height="30" as="alternateBounds" />
          </mxGeometry>
        </mxCell>
        <mxCell id="2pUBPjOlZF1aQdrN3Zt4-56" value="&lt;pre&gt;&lt;code class=&quot;!whitespace-pre hljs language-makefile&quot;&gt;&lt;span class=&quot;hljs-section&quot;&gt;1,2: (Titanic, Kate Winslet)&lt;/span&gt;&lt;/code&gt;&lt;/pre&gt;" style="shape=partialRectangle;connectable=0;fillColor=none;top=0;left=0;bottom=0;right=0;align=left;spacingLeft=6;overflow=hidden;whiteSpace=wrap;html=1;" vertex="1" parent="2pUBPjOlZF1aQdrN3Zt4-54">
          <mxGeometry x="30" width="330" height="30" as="geometry">
            <mxRectangle width="330" height="30" as="alternateBounds" />
          </mxGeometry>
        </mxCell>
        <mxCell id="2pUBPjOlZF1aQdrN3Zt4-57" value="" style="shape=tableRow;horizontal=0;startSize=0;swimlaneHead=0;swimlaneBody=0;fillColor=none;collapsible=0;dropTarget=0;points=[[0,0.5],[1,0.5]];portConstraint=eastwest;top=0;left=0;right=0;bottom=0;" vertex="1" parent="2pUBPjOlZF1aQdrN3Zt4-44">
          <mxGeometry y="142" width="360" height="30" as="geometry" />
        </mxCell>
        <mxCell id="2pUBPjOlZF1aQdrN3Zt4-58" value="" style="shape=partialRectangle;connectable=0;fillColor=none;top=0;left=0;bottom=0;right=0;editable=1;overflow=hidden;whiteSpace=wrap;html=1;" vertex="1" parent="2pUBPjOlZF1aQdrN3Zt4-57">
          <mxGeometry width="30" height="30" as="geometry">
            <mxRectangle width="30" height="30" as="alternateBounds" />
          </mxGeometry>
        </mxCell>
        <mxCell id="2pUBPjOlZF1aQdrN3Zt4-59" value="&lt;pre&gt;&lt;code class=&quot;!whitespace-pre hljs language-makefile&quot;&gt;&lt;span class=&quot;hljs-section&quot;&gt;3,3: (The Dark Knight, Christian Bale)&lt;/span&gt;&lt;/code&gt;&lt;/pre&gt;" style="shape=partialRectangle;connectable=0;fillColor=none;top=0;left=0;bottom=0;right=0;align=left;spacingLeft=6;overflow=hidden;whiteSpace=wrap;html=1;" vertex="1" parent="2pUBPjOlZF1aQdrN3Zt4-57">
          <mxGeometry x="30" width="330" height="30" as="geometry">
            <mxRectangle width="330" height="30" as="alternateBounds" />
          </mxGeometry>
        </mxCell>
        <mxCell id="2pUBPjOlZF1aQdrN3Zt4-60" value="" style="shape=tableRow;horizontal=0;startSize=0;swimlaneHead=0;swimlaneBody=0;fillColor=none;collapsible=0;dropTarget=0;points=[[0,0.5],[1,0.5]];portConstraint=eastwest;top=0;left=0;right=0;bottom=0;" vertex="1" parent="2pUBPjOlZF1aQdrN3Zt4-44">
          <mxGeometry y="172" width="360" height="30" as="geometry" />
        </mxCell>
        <mxCell id="2pUBPjOlZF1aQdrN3Zt4-61" value="" style="shape=partialRectangle;connectable=0;fillColor=none;top=0;left=0;bottom=0;right=0;editable=1;overflow=hidden;whiteSpace=wrap;html=1;" vertex="1" parent="2pUBPjOlZF1aQdrN3Zt4-60">
          <mxGeometry width="30" height="30" as="geometry">
            <mxRectangle width="30" height="30" as="alternateBounds" />
          </mxGeometry>
        </mxCell>
        <mxCell id="2pUBPjOlZF1aQdrN3Zt4-62" value="&lt;pre&gt;&lt;code class=&quot;!whitespace-pre hljs language-makefile&quot;&gt;&lt;span class=&quot;hljs-section&quot;&gt;3,4: (The Dark Knight, Heath Ledger)&lt;/span&gt;&lt;/code&gt;&lt;/pre&gt;" style="shape=partialRectangle;connectable=0;fillColor=none;top=0;left=0;bottom=0;right=0;align=left;spacingLeft=6;overflow=hidden;whiteSpace=wrap;html=1;" vertex="1" parent="2pUBPjOlZF1aQdrN3Zt4-60">
          <mxGeometry x="30" width="330" height="30" as="geometry">
            <mxRectangle width="330" height="30" as="alternateBounds" />
          </mxGeometry>
        </mxCell>
        <mxCell id="2pUBPjOlZF1aQdrN3Zt4-69" value="" style="shape=tableRow;horizontal=0;startSize=0;swimlaneHead=0;swimlaneBody=0;fillColor=none;collapsible=0;dropTarget=0;points=[[0,0.5],[1,0.5]];portConstraint=eastwest;top=0;left=0;right=0;bottom=0;" vertex="1" parent="2pUBPjOlZF1aQdrN3Zt4-44">
          <mxGeometry y="202" width="360" height="30" as="geometry" />
        </mxCell>
        <mxCell id="2pUBPjOlZF1aQdrN3Zt4-70" value="" style="shape=partialRectangle;connectable=0;fillColor=none;top=0;left=0;bottom=0;right=0;editable=1;overflow=hidden;whiteSpace=wrap;html=1;" vertex="1" parent="2pUBPjOlZF1aQdrN3Zt4-69">
          <mxGeometry width="30" height="30" as="geometry">
            <mxRectangle width="30" height="30" as="alternateBounds" />
          </mxGeometry>
        </mxCell>
        <mxCell id="2pUBPjOlZF1aQdrN3Zt4-71" value="&lt;pre&gt;&lt;code class=&quot;!whitespace-pre hljs language-makefile&quot;&gt;&lt;span class=&quot;hljs-section&quot;&gt;4,1: (Inception, Leonardo DiCaprio)&lt;/span&gt;&lt;/code&gt;&lt;/pre&gt;" style="shape=partialRectangle;connectable=0;fillColor=none;top=0;left=0;bottom=0;right=0;align=left;spacingLeft=6;overflow=hidden;whiteSpace=wrap;html=1;" vertex="1" parent="2pUBPjOlZF1aQdrN3Zt4-69">
          <mxGeometry x="30" width="330" height="30" as="geometry">
            <mxRectangle width="330" height="30" as="alternateBounds" />
          </mxGeometry>
        </mxCell>
        <mxCell id="2pUBPjOlZF1aQdrN3Zt4-72" value="" style="shape=tableRow;horizontal=0;startSize=0;swimlaneHead=0;swimlaneBody=0;fillColor=none;collapsible=0;dropTarget=0;points=[[0,0.5],[1,0.5]];portConstraint=eastwest;top=0;left=0;right=0;bottom=0;" vertex="1" parent="2pUBPjOlZF1aQdrN3Zt4-44">
          <mxGeometry y="232" width="360" height="30" as="geometry" />
        </mxCell>
        <mxCell id="2pUBPjOlZF1aQdrN3Zt4-73" value="" style="shape=partialRectangle;connectable=0;fillColor=none;top=0;left=0;bottom=0;right=0;editable=1;overflow=hidden;whiteSpace=wrap;html=1;" vertex="1" parent="2pUBPjOlZF1aQdrN3Zt4-72">
          <mxGeometry width="30" height="30" as="geometry">
            <mxRectangle width="30" height="30" as="alternateBounds" />
          </mxGeometry>
        </mxCell>
        <mxCell id="2pUBPjOlZF1aQdrN3Zt4-74" value="&lt;pre&gt;&lt;code class=&quot;!whitespace-pre hljs language-makefile&quot;&gt;&lt;span class=&quot;hljs-section&quot;&gt;4,5: (Inception, Tom Hardy)&lt;/span&gt;&lt;/code&gt;&lt;/pre&gt;" style="shape=partialRectangle;connectable=0;fillColor=none;top=0;left=0;bottom=0;right=0;align=left;spacingLeft=6;overflow=hidden;whiteSpace=wrap;html=1;" vertex="1" parent="2pUBPjOlZF1aQdrN3Zt4-72">
          <mxGeometry x="30" width="330" height="30" as="geometry">
            <mxRectangle width="330" height="30" as="alternateBounds" />
          </mxGeometry>
        </mxCell>
        <mxCell id="2pUBPjOlZF1aQdrN3Zt4-100" value="" style="shape=tableRow;horizontal=0;startSize=0;swimlaneHead=0;swimlaneBody=0;fillColor=none;collapsible=0;dropTarget=0;points=[[0,0.5],[1,0.5]];portConstraint=eastwest;top=0;left=0;right=0;bottom=0;" vertex="1" parent="2pUBPjOlZF1aQdrN3Zt4-44">
          <mxGeometry y="262" width="360" height="30" as="geometry" />
        </mxCell>
        <mxCell id="2pUBPjOlZF1aQdrN3Zt4-101" value="" style="shape=partialRectangle;connectable=0;fillColor=none;top=0;left=0;bottom=0;right=0;editable=1;overflow=hidden;whiteSpace=wrap;html=1;" vertex="1" parent="2pUBPjOlZF1aQdrN3Zt4-100">
          <mxGeometry width="30" height="30" as="geometry">
            <mxRectangle width="30" height="30" as="alternateBounds" />
          </mxGeometry>
        </mxCell>
        <mxCell id="2pUBPjOlZF1aQdrN3Zt4-102" value="&lt;pre&gt;&lt;code class=&quot;!whitespace-pre hljs language-makefile&quot;&gt;&lt;span class=&quot;hljs-section&quot;&gt;5,1: (Interstellar, Leonardo DiCaprio)&lt;/span&gt;&lt;/code&gt;&lt;/pre&gt;" style="shape=partialRectangle;connectable=0;fillColor=none;top=0;left=0;bottom=0;right=0;align=left;spacingLeft=6;overflow=hidden;whiteSpace=wrap;html=1;" vertex="1" parent="2pUBPjOlZF1aQdrN3Zt4-100">
          <mxGeometry x="30" width="330" height="30" as="geometry">
            <mxRectangle width="330" height="30" as="alternateBounds" />
          </mxGeometry>
        </mxCell>
        <mxCell id="2pUBPjOlZF1aQdrN3Zt4-103" value="" style="shape=tableRow;horizontal=0;startSize=0;swimlaneHead=0;swimlaneBody=0;fillColor=none;collapsible=0;dropTarget=0;points=[[0,0.5],[1,0.5]];portConstraint=eastwest;top=0;left=0;right=0;bottom=0;" vertex="1" parent="2pUBPjOlZF1aQdrN3Zt4-44">
          <mxGeometry y="292" width="360" height="30" as="geometry" />
        </mxCell>
        <mxCell id="2pUBPjOlZF1aQdrN3Zt4-104" value="" style="shape=partialRectangle;connectable=0;fillColor=none;top=0;left=0;bottom=0;right=0;editable=1;overflow=hidden;whiteSpace=wrap;html=1;" vertex="1" parent="2pUBPjOlZF1aQdrN3Zt4-103">
          <mxGeometry width="30" height="30" as="geometry">
            <mxRectangle width="30" height="30" as="alternateBounds" />
          </mxGeometry>
        </mxCell>
        <mxCell id="2pUBPjOlZF1aQdrN3Zt4-105" value="&lt;pre&gt;&lt;code class=&quot;!whitespace-pre hljs language-makefile&quot;&gt;&lt;span class=&quot;hljs-section&quot;&gt;5,5: (Interstellar, Tom Hardy)&lt;/span&gt;&lt;/code&gt;&lt;/pre&gt;" style="shape=partialRectangle;connectable=0;fillColor=none;top=0;left=0;bottom=0;right=0;align=left;spacingLeft=6;overflow=hidden;whiteSpace=wrap;html=1;" vertex="1" parent="2pUBPjOlZF1aQdrN3Zt4-103">
          <mxGeometry x="30" width="330" height="30" as="geometry">
            <mxRectangle width="330" height="30" as="alternateBounds" />
          </mxGeometry>
        </mxCell>
        <mxCell id="2pUBPjOlZF1aQdrN3Zt4-106" value="&lt;pre&gt;&lt;code class=&quot;!whitespace-pre hljs language-makefile&quot;&gt;Movie&lt;/code&gt;&lt;/pre&gt;" style="shape=table;startSize=30;container=1;collapsible=1;childLayout=tableLayout;fixedRows=1;rowLines=0;fontStyle=1;align=center;resizeLast=1;html=1;" vertex="1" parent="1">
          <mxGeometry y="370" width="180" height="210" as="geometry" />
        </mxCell>
        <mxCell id="2pUBPjOlZF1aQdrN3Zt4-107" value="" style="shape=tableRow;horizontal=0;startSize=0;swimlaneHead=0;swimlaneBody=0;fillColor=none;collapsible=0;dropTarget=0;points=[[0,0.5],[1,0.5]];portConstraint=eastwest;top=0;left=0;right=0;bottom=1;" vertex="1" parent="2pUBPjOlZF1aQdrN3Zt4-106">
          <mxGeometry y="30" width="180" height="30" as="geometry" />
        </mxCell>
        <mxCell id="2pUBPjOlZF1aQdrN3Zt4-108" value="PK" style="shape=partialRectangle;connectable=0;fillColor=none;top=0;left=0;bottom=0;right=0;fontStyle=1;overflow=hidden;whiteSpace=wrap;html=1;" vertex="1" parent="2pUBPjOlZF1aQdrN3Zt4-107">
          <mxGeometry width="30" height="30" as="geometry">
            <mxRectangle width="30" height="30" as="alternateBounds" />
          </mxGeometry>
        </mxCell>
        <mxCell id="2pUBPjOlZF1aQdrN3Zt4-109" value="&lt;pre&gt;&lt;code class=&quot;!whitespace-pre hljs language-makefile&quot;&gt;&lt;span class=&quot;hljs-section&quot;&gt;movie_id&lt;/span&gt;&lt;/code&gt;&lt;/pre&gt;" style="shape=partialRectangle;connectable=0;fillColor=none;top=0;left=0;bottom=0;right=0;align=left;spacingLeft=6;fontStyle=5;overflow=hidden;whiteSpace=wrap;html=1;" vertex="1" parent="2pUBPjOlZF1aQdrN3Zt4-107">
          <mxGeometry x="30" width="150" height="30" as="geometry">
            <mxRectangle width="150" height="30" as="alternateBounds" />
          </mxGeometry>
        </mxCell>
        <mxCell id="2pUBPjOlZF1aQdrN3Zt4-110" value="" style="shape=tableRow;horizontal=0;startSize=0;swimlaneHead=0;swimlaneBody=0;fillColor=none;collapsible=0;dropTarget=0;points=[[0,0.5],[1,0.5]];portConstraint=eastwest;top=0;left=0;right=0;bottom=0;" vertex="1" parent="2pUBPjOlZF1aQdrN3Zt4-106">
          <mxGeometry y="60" width="180" height="30" as="geometry" />
        </mxCell>
        <mxCell id="2pUBPjOlZF1aQdrN3Zt4-111" value="" style="shape=partialRectangle;connectable=0;fillColor=none;top=0;left=0;bottom=0;right=0;editable=1;overflow=hidden;whiteSpace=wrap;html=1;" vertex="1" parent="2pUBPjOlZF1aQdrN3Zt4-110">
          <mxGeometry width="30" height="30" as="geometry">
            <mxRectangle width="30" height="30" as="alternateBounds" />
          </mxGeometry>
        </mxCell>
        <mxCell id="2pUBPjOlZF1aQdrN3Zt4-112" value="&lt;pre&gt;&lt;code class=&quot;!whitespace-pre hljs language-makefile&quot;&gt;&lt;span class=&quot;hljs-section&quot;&gt;1: Titanic&lt;/span&gt;&lt;/code&gt;&lt;/pre&gt;" style="shape=partialRectangle;connectable=0;fillColor=none;top=0;left=0;bottom=0;right=0;align=left;spacingLeft=6;overflow=hidden;whiteSpace=wrap;html=1;" vertex="1" parent="2pUBPjOlZF1aQdrN3Zt4-110">
          <mxGeometry x="30" width="150" height="30" as="geometry">
            <mxRectangle width="150" height="30" as="alternateBounds" />
          </mxGeometry>
        </mxCell>
        <mxCell id="2pUBPjOlZF1aQdrN3Zt4-113" value="" style="shape=tableRow;horizontal=0;startSize=0;swimlaneHead=0;swimlaneBody=0;fillColor=none;collapsible=0;dropTarget=0;points=[[0,0.5],[1,0.5]];portConstraint=eastwest;top=0;left=0;right=0;bottom=0;" vertex="1" parent="2pUBPjOlZF1aQdrN3Zt4-106">
          <mxGeometry y="90" width="180" height="30" as="geometry" />
        </mxCell>
        <mxCell id="2pUBPjOlZF1aQdrN3Zt4-114" value="" style="shape=partialRectangle;connectable=0;fillColor=none;top=0;left=0;bottom=0;right=0;editable=1;overflow=hidden;whiteSpace=wrap;html=1;" vertex="1" parent="2pUBPjOlZF1aQdrN3Zt4-113">
          <mxGeometry width="30" height="30" as="geometry">
            <mxRectangle width="30" height="30" as="alternateBounds" />
          </mxGeometry>
        </mxCell>
        <mxCell id="2pUBPjOlZF1aQdrN3Zt4-115" value="&lt;pre&gt;&lt;code class=&quot;!whitespace-pre hljs language-makefile&quot;&gt;&lt;span class=&quot;hljs-section&quot;&gt;2: Avatar&lt;/span&gt;&lt;/code&gt;&lt;/pre&gt;" style="shape=partialRectangle;connectable=0;fillColor=none;top=0;left=0;bottom=0;right=0;align=left;spacingLeft=6;overflow=hidden;whiteSpace=wrap;html=1;" vertex="1" parent="2pUBPjOlZF1aQdrN3Zt4-113">
          <mxGeometry x="30" width="150" height="30" as="geometry">
            <mxRectangle width="150" height="30" as="alternateBounds" />
          </mxGeometry>
        </mxCell>
        <mxCell id="2pUBPjOlZF1aQdrN3Zt4-116" value="" style="shape=tableRow;horizontal=0;startSize=0;swimlaneHead=0;swimlaneBody=0;fillColor=none;collapsible=0;dropTarget=0;points=[[0,0.5],[1,0.5]];portConstraint=eastwest;top=0;left=0;right=0;bottom=0;" vertex="1" parent="2pUBPjOlZF1aQdrN3Zt4-106">
          <mxGeometry y="120" width="180" height="30" as="geometry" />
        </mxCell>
        <mxCell id="2pUBPjOlZF1aQdrN3Zt4-117" value="" style="shape=partialRectangle;connectable=0;fillColor=none;top=0;left=0;bottom=0;right=0;editable=1;overflow=hidden;whiteSpace=wrap;html=1;" vertex="1" parent="2pUBPjOlZF1aQdrN3Zt4-116">
          <mxGeometry width="30" height="30" as="geometry">
            <mxRectangle width="30" height="30" as="alternateBounds" />
          </mxGeometry>
        </mxCell>
        <mxCell id="2pUBPjOlZF1aQdrN3Zt4-118" value="&lt;pre&gt;&lt;code class=&quot;!whitespace-pre hljs language-makefile&quot;&gt;&lt;span class=&quot;hljs-section&quot;&gt;3: The Dark Knight&lt;/span&gt;&lt;/code&gt;&lt;/pre&gt;" style="shape=partialRectangle;connectable=0;fillColor=none;top=0;left=0;bottom=0;right=0;align=left;spacingLeft=6;overflow=hidden;whiteSpace=wrap;html=1;" vertex="1" parent="2pUBPjOlZF1aQdrN3Zt4-116">
          <mxGeometry x="30" width="150" height="30" as="geometry">
            <mxRectangle width="150" height="30" as="alternateBounds" />
          </mxGeometry>
        </mxCell>
        <mxCell id="2pUBPjOlZF1aQdrN3Zt4-119" value="" style="shape=tableRow;horizontal=0;startSize=0;swimlaneHead=0;swimlaneBody=0;fillColor=none;collapsible=0;dropTarget=0;points=[[0,0.5],[1,0.5]];portConstraint=eastwest;top=0;left=0;right=0;bottom=0;" vertex="1" parent="2pUBPjOlZF1aQdrN3Zt4-106">
          <mxGeometry y="150" width="180" height="30" as="geometry" />
        </mxCell>
        <mxCell id="2pUBPjOlZF1aQdrN3Zt4-120" value="" style="shape=partialRectangle;connectable=0;fillColor=none;top=0;left=0;bottom=0;right=0;editable=1;overflow=hidden;whiteSpace=wrap;html=1;" vertex="1" parent="2pUBPjOlZF1aQdrN3Zt4-119">
          <mxGeometry width="30" height="30" as="geometry">
            <mxRectangle width="30" height="30" as="alternateBounds" />
          </mxGeometry>
        </mxCell>
        <mxCell id="2pUBPjOlZF1aQdrN3Zt4-121" value="&lt;pre&gt;&lt;code class=&quot;!whitespace-pre hljs language-makefile&quot;&gt;&lt;span class=&quot;hljs-section&quot;&gt;4: Inception&lt;/span&gt;&lt;/code&gt;&lt;/pre&gt;" style="shape=partialRectangle;connectable=0;fillColor=none;top=0;left=0;bottom=0;right=0;align=left;spacingLeft=6;overflow=hidden;whiteSpace=wrap;html=1;" vertex="1" parent="2pUBPjOlZF1aQdrN3Zt4-119">
          <mxGeometry x="30" width="150" height="30" as="geometry">
            <mxRectangle width="150" height="30" as="alternateBounds" />
          </mxGeometry>
        </mxCell>
        <mxCell id="2pUBPjOlZF1aQdrN3Zt4-122" value="" style="shape=tableRow;horizontal=0;startSize=0;swimlaneHead=0;swimlaneBody=0;fillColor=none;collapsible=0;dropTarget=0;points=[[0,0.5],[1,0.5]];portConstraint=eastwest;top=0;left=0;right=0;bottom=0;" vertex="1" parent="2pUBPjOlZF1aQdrN3Zt4-106">
          <mxGeometry y="180" width="180" height="30" as="geometry" />
        </mxCell>
        <mxCell id="2pUBPjOlZF1aQdrN3Zt4-123" value="" style="shape=partialRectangle;connectable=0;fillColor=none;top=0;left=0;bottom=0;right=0;editable=1;overflow=hidden;whiteSpace=wrap;html=1;" vertex="1" parent="2pUBPjOlZF1aQdrN3Zt4-122">
          <mxGeometry width="30" height="30" as="geometry">
            <mxRectangle width="30" height="30" as="alternateBounds" />
          </mxGeometry>
        </mxCell>
        <mxCell id="2pUBPjOlZF1aQdrN3Zt4-124" value="&lt;pre&gt;&lt;code class=&quot;!whitespace-pre hljs language-makefile&quot;&gt;&lt;span class=&quot;hljs-section&quot;&gt;5: Interstellar&lt;/span&gt;&lt;/code&gt;&lt;/pre&gt;" style="shape=partialRectangle;connectable=0;fillColor=none;top=0;left=0;bottom=0;right=0;align=left;spacingLeft=6;overflow=hidden;whiteSpace=wrap;html=1;" vertex="1" parent="2pUBPjOlZF1aQdrN3Zt4-122">
          <mxGeometry x="30" width="150" height="30" as="geometry">
            <mxRectangle width="150" height="30" as="alternateBounds" />
          </mxGeometry>
        </mxCell>
      </root>
    </mxGraphModel>
  </diagram>
</mxfile>
